<svg width="62" height="56" viewBox="0 0 62 56" fill="none" xmlns="http://www.w3.org/2000/svg">
<path d="M30.9977 39.3901C30.1783 39.3901 29.3925 39.7157 28.8131 40.295C28.2337 40.8744 27.9082 41.6603 27.9082 42.4796C27.9082 43.299 28.2337 44.0849 28.8131 44.6642C29.3925 45.2436 30.1783 45.5692 30.9977 45.5692C31.8075 45.5546 32.5791 45.2227 33.1466 44.6449C33.7141 44.0671 34.0321 43.2895 34.0321 42.4796C34.0321 41.6698 33.7141 40.8922 33.1466 40.3144C32.5791 39.7366 31.8075 39.4047 30.9977 39.3901V39.3901Z" fill="#EA5454"/>
<path d="M59.5928 50.3391C60.5465 48.7226 61.0515 46.8809 61.0559 45.004C61.0603 43.1271 60.5639 41.2831 59.6178 39.6621L40.2659 6.14911C39.3341 4.51734 37.9877 3.16079 36.3629 2.21686C34.7382 1.27293 32.8929 0.775146 31.0138 0.773928C29.1348 0.77271 27.2888 1.2681 25.6628 2.20993C24.0369 3.15175 22.6887 4.50655 21.7548 6.13711L2.37885 39.6871C1.44257 41.3132 0.95038 43.157 0.951663 45.0334C0.952946 46.9098 1.44765 48.7529 2.38616 50.3778C3.32466 52.0027 4.67396 53.3521 6.29869 54.2909C7.92341 55.2296 9.76643 55.7246 11.6428 55.7261H50.2998C52.1874 55.733 54.0428 55.2377 55.6759 54.2911C57.3089 53.3445 58.6608 51.9805 59.5928 50.3391V50.3391ZM55.3928 47.9171C54.881 48.8174 54.1389 49.5653 53.2427 50.0842C52.3465 50.6031 51.3284 50.8744 50.2928 50.8701H11.6348C10.6135 50.8784 9.6083 50.6149 8.7223 50.1067C7.83631 49.5985 7.10138 48.8639 6.59285 47.9781C6.06907 47.0847 5.79196 46.0683 5.78986 45.0327C5.78775 43.9972 6.06072 42.9796 6.58085 42.0841L25.9568 8.54711C26.4666 7.65623 27.203 6.91605 28.0912 6.40165C28.9794 5.88725 29.9879 5.61695 31.0143 5.61817C32.0408 5.61939 33.0486 5.89209 33.9356 6.40859C34.8226 6.92509 35.5572 7.66702 36.0648 8.55911L55.4278 42.0921C55.9389 42.979 56.2049 43.986 56.1984 45.0096C56.1919 46.0333 55.9132 47.0367 55.3909 47.9171H55.3928Z" fill="#EA5454"/>
<path d="M30.2329 17.7029C29.5164 17.9193 28.8926 18.3688 28.4605 18.98C28.0284 19.5912 27.8129 20.3292 27.8479 21.0769C27.9219 22.0529 27.9839 23.0419 28.0579 24.0179C28.2679 27.7379 28.4779 31.3829 28.6879 35.1019C28.7111 35.695 28.9663 36.2553 29.3985 36.6621C29.8308 37.0689 30.4055 37.2897 30.9989 37.2769C31.6013 37.2774 32.1801 37.0425 32.6118 36.6224C33.0435 36.2023 33.294 35.6301 33.3099 35.0279C33.3099 34.2619 33.3099 33.5569 33.3839 32.7789C33.5199 30.3939 33.6679 28.0089 33.8039 25.6239C33.8779 24.0789 34.0139 22.5349 34.0879 20.9899C34.1014 20.4608 34.0047 19.9347 33.8039 19.4449C33.507 18.7823 32.9868 18.245 32.3342 17.9266C31.6816 17.6083 30.9379 17.5291 30.2329 17.7029V17.7029Z" fill="#EA5454"/>
</svg>
